HIERARCHY
ROOT Hips
{
	OFFSET 0.000000 83.214638 0.000000
	CHANNELS 6 Xposition Yposition Zposition Xrotation Yrotation Zrotation
	JOINT Pelvis
	{
		OFFSET 0.000000 0.000000 0.000000
		CHANNELS 3 Xrotation Yrotation Zrotation
		JOINT LeftUpLeg
		{
			OFFSET 8.479700 -4.795502 -0.379100
			CHANNELS 3 Xrotation Yrotation Zrotation
			JOINT LeftLeg
			{
				OFFSET 0.024144 -32.555107 0.112900
				CHANNELS 3 Xrotation Yrotation Zrotation
				JOINT LeftFoot
				{
					OFFSET -0.024144 -32.638630 -3.012600
					CHANNELS 3 Xrotation Yrotation Zrotation
					JOINT LeftToeBase
					{
						OFFSET 0.970200 -13.225400 11.864200
						CHANNELS 3 Xrotation Yrotation Zrotation
						End Site
						{
							OFFSET 0.000000 12.319262 0.000000
						}
					}
					JOINT LFootTongue
					{
						OFFSET 1.142400 -1.059800 6.665200
						CHANNELS 3 Xrotation Yrotation Zrotation
						End Site
						{
							OFFSET 0.000000 12.319262 0.000000
						}
					}
				}
				JOINT LeftPantLeg
				{
					OFFSET 0.918482 -16.533964 -2.284700
					CHANNELS 3 Xrotation Yrotation Zrotation
					End Site
					{
						OFFSET 0.350399 24.744368 0.000000
					}
				}
			}
		}
		JOINT RightUpLeg
		{
			OFFSET -8.479700 -4.795502 -0.379100
			CHANNELS 3 Xrotation Yrotation Zrotation
			JOINT RightLeg
			{
				OFFSET -0.023144 -32.555092 0.112900
				CHANNELS 3 Xrotation Yrotation Zrotation
				JOINT RightFoot
				{
					OFFSET 0.023144 -32.638641 -3.012700
					CHANNELS 3 Xrotation Yrotation Zrotation
					JOINT RightToeBase
					{
						OFFSET -0.970200 -13.225400 11.864200
						CHANNELS 3 Xrotation Yrotation Zrotation
						End Site
						{
							OFFSET 0.000000 12.319244 0.000000
						}
					}
					JOINT RFootTongue
					{
						OFFSET -1.142200 -1.059800 6.665200
						CHANNELS 3 Xrotation Yrotation Zrotation
						End Site
						{
							OFFSET 0.000000 12.319243 0.000000
						}
					}
				}
				JOINT RightPantLeg
				{
					OFFSET -0.919482 -16.533978 -2.284800
					CHANNELS 3 Xrotation Yrotation Zrotation
					End Site
					{
						OFFSET -0.350400 24.744419 0.000000
					}
				}
			}
		}
	}
	JOINT Spine
	{
		OFFSET 0.000000 7.722000 1.166200
		CHANNELS 3 Xrotation Yrotation Zrotation
		JOINT Spine1
		{
			OFFSET 0.000000 12.024101 0.248800
			CHANNELS 3 Xrotation Yrotation Zrotation
			JOINT Spine2
			{
				OFFSET 0.000000 11.502998 -0.491200
				CHANNELS 3 Xrotation Yrotation Zrotation
				JOINT Neck
				{
					OFFSET 0.000000 18.430702 -3.123100
					CHANNELS 3 Xrotation Yrotation Zrotation
					JOINT Head
					{
						OFFSET 0.000000 9.051102 1.034000
						CHANNELS 3 Xrotation Yrotation Zrotation
						JOINT HairB
						{
							OFFSET 0.208400 24.786102 24.822300
							CHANNELS 3 Xrotation Yrotation Zrotation
							End Site
							{
								OFFSET 0.000000 32.263779 0.000000
							}
						}
						JOINT HairA
						{
							OFFSET -7.081100 24.428299 23.196600
							CHANNELS 3 Xrotation Yrotation Zrotation
							End Site
							{
								OFFSET 0.000000 32.263779 0.000000
							}
						}
						JOINT Hat
						{
							OFFSET 16.728800 15.048294 -15.439601
							CHANNELS 3 Xrotation Yrotation Zrotation
							End Site
							{
								OFFSET 0.000000 32.263779 0.000000
							}
						}
					}
				}
				JOINT LeftShoulder
				{
					OFFSET 6.197800 13.665199 -4.064700
					CHANNELS 3 Xrotation Yrotation Zrotation
					JOINT LeftArm
					{
						OFFSET 7.778100 -0.187103 -1.709300
						CHANNELS 3 Xrotation Yrotation Zrotation
						JOINT LeftForeArm
						{
							OFFSET 22.049376 0.000000 0.000000
							CHANNELS 3 Xrotation Yrotation Zrotation
							JOINT LeftHand
							{
								OFFSET 23.009392 0.000000 0.000000
								CHANNELS 3 Xrotation Yrotation Zrotation
								JOINT LeftHandThumb1
								{
									OFFSET 3.507191 -2.063065 3.133727
									CHANNELS 3 Xrotation Yrotation Zrotation
									JOINT LeftHandThumb2
									{
										OFFSET 3.101337 -1.790558 1.790558
										CHANNELS 3 Xrotation Yrotation Zrotation
										JOINT LeftHandThumb3
										{
											OFFSET 3.058640 -1.765907 1.765906
											CHANNELS 3 Xrotation Yrotation Zrotation
											End Site
											{
												OFFSET -0.415260 3.926476 -0.049563
											}
										}
									}
								}
								JOINT LeftHandIndex1
								{
									OFFSET 11.334419 -0.901459 3.706815
									CHANNELS 3 Xrotation Yrotation Zrotation
									JOINT LeftHandIndex2
									{
										OFFSET 3.283112 0.000000 0.000000
										CHANNELS 3 Xrotation Yrotation Zrotation
										JOINT LeftHandIndex3
										{
											OFFSET 3.323853 0.000000 0.000000
											CHANNELS 3 Xrotation Yrotation Zrotation
											End Site
											{
												OFFSET -1.135597 3.097809 0.402452
											}
										}
									}
								}
								JOINT LeftHandMiddle1
								{
									OFFSET 11.335861 0.000000 0.000000
									CHANNELS 3 Xrotation Yrotation Zrotation
									JOINT LeftHandMiddle2
									{
										OFFSET 3.410492 0.000000 0.000000
										CHANNELS 3 Xrotation Yrotation Zrotation
										JOINT LeftHandMiddle3
										{
											OFFSET 3.312172 0.000000 0.000000
											CHANNELS 3 Xrotation Yrotation Zrotation
											End Site
											{
												OFFSET -1.150200 3.080154 0.400270
											}
										}
									}
								}
								JOINT LeftHandRing1
								{
									OFFSET 11.514786 -0.013176 -3.003090
									CHANNELS 3 Xrotation Yrotation Zrotation
									JOINT LeftHandRing2
									{
										OFFSET 3.053307 0.000000 0.000000
										CHANNELS 3 Xrotation Yrotation Zrotation
										JOINT LeftHandRing3
										{
											OFFSET 3.295807 0.000000 0.000000
											CHANNELS 3 Xrotation Yrotation Zrotation
											End Site
											{
												OFFSET -1.281006 3.013344 0.375733
											}
										}
									}
								}
								JOINT LeftHandPinky1
								{
									OFFSET 10.518692 -0.960396 -5.730441
									CHANNELS 3 Xrotation Yrotation Zrotation
									JOINT LeftHandPinky2
									{
										OFFSET 2.861649 0.000000 0.000000
										CHANNELS 3 Xrotation Yrotation Zrotation
										JOINT LeftHandPinky3
										{
											OFFSET 2.863380 0.000000 0.000000
											CHANNELS 3 Xrotation Yrotation Zrotation
											End Site
											{
												OFFSET -0.843597 2.711159 0.369971
											}
										}
									}
								}
							}
							JOINT LSleeve
							{
								OFFSET 6.676277 -0.344902 -1.011730
								CHANNELS 3 Xrotation Yrotation Zrotation
								End Site
								{
									OFFSET 0.000000 14.885353 0.000000
								}
							}
						}
					}
				}
				JOINT RightShoulder
				{
					OFFSET -6.197800 13.665199 -4.064700
					CHANNELS 3 Xrotation Yrotation Zrotation
					JOINT RightArm
					{
						OFFSET -7.778100 -0.187103 -1.709300
						CHANNELS 3 Xrotation Yrotation Zrotation
						JOINT RightForeArm
						{
							OFFSET -22.049376 0.000000 0.000000
							CHANNELS 3 Xrotation Yrotation Zrotation
							JOINT RightHand
							{
								OFFSET -23.009392 0.000000 0.000000
								CHANNELS 3 Xrotation Yrotation Zrotation
								JOINT RightHandThumb1
								{
									OFFSET -3.507191 -2.063065 3.133727
									CHANNELS 3 Xrotation Yrotation Zrotation
									JOINT RightHandThumb2
									{
										OFFSET -3.101337 -1.790558 1.790558
										CHANNELS 3 Xrotation Yrotation Zrotation
										JOINT RightHandThumb3
										{
											OFFSET -3.058640 -1.765907 1.765906
											CHANNELS 3 Xrotation Yrotation Zrotation
											End Site
											{
												OFFSET 0.415260 3.926476 -0.049563
											}
										}
									}
								}
								JOINT RightHandIndex1
								{
									OFFSET -11.334419 -0.901459 3.706815
									CHANNELS 3 Xrotation Yrotation Zrotation
									JOINT RightHandIndex2
									{
										OFFSET -3.283112 0.000000 0.000000
										CHANNELS 3 Xrotation Yrotation Zrotation
										JOINT RightHandIndex3
										{
											OFFSET -3.323853 0.000000 0.000000
											CHANNELS 3 Xrotation Yrotation Zrotation
											End Site
											{
												OFFSET 1.135597 3.097809 0.402452
											}
										}
									}
								}
								JOINT RightHandMiddle1
								{
									OFFSET -11.335861 0.000000 0.000000
									CHANNELS 3 Xrotation Yrotation Zrotation
									JOINT RightHandMiddle2
									{
										OFFSET -3.410492 0.000000 0.000000
										CHANNELS 3 Xrotation Yrotation Zrotation
										JOINT RightHandMiddle3
										{
											OFFSET -3.312172 0.000000 0.000000
											CHANNELS 3 Xrotation Yrotation Zrotation
											End Site
											{
												OFFSET 1.150200 3.080154 0.400270
											}
										}
									}
								}
								JOINT RightHandRing1
								{
									OFFSET -11.514786 -0.013176 -3.003090
									CHANNELS 3 Xrotation Yrotation Zrotation
									JOINT RightHandRing2
									{
										OFFSET -3.053307 0.000000 0.000000
										CHANNELS 3 Xrotation Yrotation Zrotation
										JOINT RightHandRing3
										{
											OFFSET -3.295807 0.000000 0.000000
											CHANNELS 3 Xrotation Yrotation Zrotation
											End Site
											{
												OFFSET 1.281006 3.013344 0.375733
											}
										}
									}
								}
								JOINT RightHandPinky1
								{
									OFFSET -10.518692 -0.960396 -5.730441
									CHANNELS 3 Xrotation Yrotation Zrotation
									JOINT RightHandPinky2
									{
										OFFSET -2.861649 0.000000 0.000000
										CHANNELS 3 Xrotation Yrotation Zrotation
										JOINT RightHandPinky3
										{
											OFFSET -2.863380 0.000000 0.000000
											CHANNELS 3 Xrotation Yrotation Zrotation
											End Site
											{
												OFFSET 0.843597 2.711159 0.369971
											}
										}
									}
								}
							}
							JOINT RSleeve
							{
								OFFSET -6.676277 -0.344902 -1.011730
								CHANNELS 3 Xrotation Yrotation Zrotation
								End Site
								{
									OFFSET 0.000000 14.885353 0.000000
								}
							}
						}
					}
				}
				JOINT Backpack
				{
					OFFSET 0.000000 -2.471497 36.677502
					CHANNELS 3 Xrotation Yrotation Zrotation
					End Site
					{
						OFFSET 0.000000 20.427315 0.000000
					}
				}
				JOINT Hood
				{
					OFFSET 0.000000 18.754097 -10.431000
					CHANNELS 3 Xrotation Yrotation Zrotation
					JOINT Hood1
					{
						OFFSET 0.000000 -5.011002 -7.685901
						CHANNELS 3 Xrotation Yrotation Zrotation
						End Site
						{
							OFFSET 0.000000 9.175140 0.000000
						}
					}
				}
				JOINT LHoodieString
				{
					OFFSET 5.250500 16.397697 3.089900
					CHANNELS 3 Xrotation Yrotation Zrotation
					JOINT LHoodieString1
					{
						OFFSET 0.257700 -6.364304 3.694600
						CHANNELS 3 Xrotation Yrotation Zrotation
						JOINT LHoodieString2
						{
							OFFSET 0.000000 -9.643799 2.679100
							CHANNELS 3 Xrotation Yrotation Zrotation
							End Site
							{
								OFFSET 0.000000 10.009018 0.000000
							}
						}
					}
				}
				JOINT RHoodieString
				{
					OFFSET -5.250500 16.397697 3.089900
					CHANNELS 3 Xrotation Yrotation Zrotation
					JOINT RHoodieString1
					{
						OFFSET -0.257700 -6.364304 3.694600
						CHANNELS 3 Xrotation Yrotation Zrotation
						JOINT RHoodieString2
						{
							OFFSET 0.000000 -9.643799 2.679100
							CHANNELS 3 Xrotation Yrotation Zrotation
							End Site
							{
								OFFSET 0.000000 10.009018 0.000000
							}
						}
					}
				}
			}
			JOINT LBackpack_Strap
			{
				OFFSET 15.223200 -7.719803 -6.610900
				CHANNELS 3 Xrotation Yrotation Zrotation
				End Site
				{
					OFFSET 0.000000 16.040596 0.000000
				}
			}
			JOINT RBackpack_Strap
			{
				OFFSET -15.223000 -7.719803 -6.610900
				CHANNELS 3 Xrotation Yrotation Zrotation
				End Site
				{
					OFFSET 0.000000 16.040596 0.000000
				}
			}
		}
	}
	JOINT BoyFacialAnim_Joint
	{
		OFFSET 1.000000 -82.208099 -1.550900
		CHANNELS 3 Xrotation Yrotation Zrotation
		End Site
		{
			OFFSET 0.000000 30.012791 0.000000
		}
	}
}
MOTION
Frames: 4
Frame Time: 0.033333
1.477479 82.178604 -0.576290 4.392031 -178.251231 0.728770 0.000000 -0.000000 -0.000000 -6.378845 17.460535 8.579886 12.713596 -10.526917 4.936864 -5.528121 -4.090907 -6.671450 0.000000 -0.000001 -0.000000 0.000000 -0.000001 -0.000000 -0.000001 -0.000000 0.000000 -4.813420 -14.423719 -8.973403 14.556637 5.861974 -4.751127 -6.337408 -0.643807 6.095969 -0.000000 0.000000 0.000000 -0.000000 0.000000 0.000000 -0.000000 -0.000001 0.000001 -0.943566 -4.218462 -3.763327 0.617375 -1.102530 1.501627 0.640200 -1.100714 1.498156 0.375020 1.908777 -1.118287 7.724970 7.753368 -0.275763 0.000000 0.000000 -0.000000 0.000000 0.000000 -0.000000 0.000000 0.000000 -0.000000 1.012593 -5.270115 -9.531668 -63.400493 -62.517657 -57.190670 -0.003791 -93.910805 -0.003762 -14.723552 -20.857671 5.423632 -3.038169 18.721998 -12.520720 12.000687 21.632246 5.115104 0.000001 -0.000001 0.000000 0.077743 1.033884 -8.600219 0.327499 2.102187 -17.707825 -0.000001 0.000001 -0.000003 0.077453 1.031971 -8.584241 0.328090 2.104021 -17.723822 0.000001 0.000001 -0.000003 0.077743 1.033880 -8.600223 0.327498 2.102188 -17.707841 -0.000001 -0.000000 -0.000004 0.667968 5.045115 -8.121105 0.328120 -1.954986 -18.194729 0.000002 0.000000 -0.000000 0.000000 -0.000000 0.000002 0.940581 4.951206 4.361740 -39.086649 6.825647 44.713321 -0.000020 121.909342 0.000024 -13.211157 18.286491 -33.427267 33.992762 -17.793696 4.582347 40.959217 -9.124557 0.220399 0.000000 0.000001 -0.000002 5.552917 -6.807384 78.387595 7.266709 -6.940978 92.633491 0.000001 -0.000001 0.000005 5.552904 -6.807381 78.387595 7.266708 -6.940968 92.633491 0.000002 0.000000 0.000001 5.552905 -6.807356 78.387588 7.266693 -6.940974 92.633471 -0.000001 -0.000001 0.000002 5.552901 -6.807349 78.387609 7.266713 -6.940997 92.633471 0.000001 -0.000000 0.000000 0.000000 0.000001 -0.000004 -0.000001 0.000000 0.000000 -0.000001 0.000000 0.000000 -0.000001 0.000000 0.000000 -0.000001 0.000000 0.000000 -0.000001 0.000000 0.000000 0.000000 0.000000 0.000000 -0.000001 0.000000 0.000000 -0.000001 0.000000 0.000000 0.000000 0.000000 0.000000 -0.000000 -0.000000 -0.000000 -0.000000 -0.000000 -0.000000 0.000000 -0.000000 -0.000000 
1.550073 82.149582 -0.631514 4.972360 -178.375608 0.750911 0.000000 0.000000 0.000000 -5.821203 17.540908 8.552360 12.975556 -10.483335 5.214163 -5.809630 -4.325109 -6.720516 0.000000 -0.000001 -0.000001 0.000000 -0.000001 -0.000000 -0.000000 -0.000001 -0.000001 -4.304666 -14.646948 -8.985049 14.789496 6.255808 -4.845783 -6.577326 -0.666116 6.160706 -0.000000 -0.000000 0.000000 -0.000000 -0.000000 0.000000 0.000001 0.000001 0.000000 -0.631887 -4.466387 -3.792904 0.499776 -1.165547 1.516444 0.523981 -1.163582 1.514310 0.382778 1.956715 -1.320781 8.885371 7.636097 -0.253569 0.000000 0.000000 -0.000000 0.000000 0.000000 -0.000000 0.000000 0.000000 -0.000000 1.002856 -4.874567 -9.361175 -63.739155 -62.574136 -57.751435 0.000466 -93.632563 0.000465 -15.127715 -20.737856 5.319703 -3.038173 18.721999 -12.520718 12.000688 21.632246 5.115104 -0.000001 -0.000001 0.000001 0.077740 1.033885 -8.600218 0.327500 2.102190 -17.707832 -0.000001 0.000002 -0.000001 0.077453 1.031973 -8.584244 0.328088 2.104018 -17.723824 0.000001 -0.000001 -0.000000 0.077742 1.033881 -8.600230 0.327498 2.102191 -17.707839 0.000000 0.000001 -0.000002 0.667968 5.045117 -8.121112 0.328119 -1.954985 -18.194733 0.000001 0.000003 0.000000 -0.000000 0.000000 -0.000001 0.942679 4.975891 4.330388 -38.805204 6.891255 44.907640 0.000001 121.448044 0.000003 -13.006683 18.670703 -33.313783 33.992765 -17.793695 4.582347 40.959210 -9.124554 0.220398 -0.000000 -0.000002 0.000000 5.552919 -6.807384 78.387595 7.266712 -6.940980 92.633491 -0.000002 0.000000 0.000002 5.552909 -6.807380 78.387595 7.266706 -6.940967 92.633484 0.000001 0.000003 -0.000005 5.552910 -6.807355 78.387588 7.266693 -6.940976 92.633484 -0.000001 0.000000 -0.000001 5.552904 -6.807348 78.387609 7.266714 -6.940997 92.633464 0.000003 -0.000001 0.000002 0.000001 -0.000001 -0.000003 -0.000001 0.000000 -0.000000 -0.000001 0.000000 -0.000000 -0.000001 0.000000 -0.000000 -0.000001 0.000000 -0.000000 -0.000001 0.000000 0.000000 -0.000000 0.000000 0.000000 -0.000001 0.000000 -0.000000 -0.000001 0.000000 0.000000 -0.000000 0.000000 0.000000 0.000000 -0.000000 -0.000000 0.000000 -0.000000 -0.000000 0.000000 0.000000 0.000000 
1.606611 82.115967 -0.690271 5.506067 -178.532484 0.780938 -0.000000 -0.000000 0.000000 -5.298790 17.576155 8.483849 13.273674 -10.440997 5.495888 -6.105101 -4.443589 -6.751577 0.000000 0.000001 0.000000 0.000000 0.000001 0.000000 -0.000001 -0.000000 -0.000000 -3.873164 -14.843734 -9.031852 15.055071 6.715997 -4.955391 -6.825440 -0.696562 6.285462 -0.000000 0.000000 0.000000 -0.000000 0.000000 0.000000 -0.000000 -0.000000 0.000001 -0.305061 -4.693056 -3.792247 0.385873 -1.223153 1.511343 0.411102 -1.220960 1.510623 0.370674 1.999102 -1.479998 10.010286 7.562874 -0.307407 -0.000000 0.000000 -0.000000 -0.000000 0.000000 -0.000000 -0.000000 0.000000 -0.000000 0.992931 -4.516783 -9.130093 -64.090568 -62.502467 -58.285781 -0.013521 -93.363837 -0.013477 -15.492201 -20.730647 5.365550 -3.038172 18.722001 -12.520721 12.000686 21.632247 5.115105 -0.000000 -0.000000 -0.000001 0.077744 1.033884 -8.600228 0.327499 2.102189 -17.707832 -0.000002 0.000003 -0.000005 0.077453 1.031972 -8.584247 0.328087 2.104018 -17.723817 0.000000 0.000003 -0.000001 0.077745 1.033881 -8.600232 0.327500 2.102193 -17.707841 -0.000000 -0.000002 -0.000008 0.667967 5.045119 -8.121115 0.328118 -1.954986 -18.194727 -0.000002 -0.000002 0.000003 0.000000 0.000000 0.000005 0.943108 4.993258 4.336158 -38.599212 7.169622 44.934961 0.000003 120.978906 -0.000007 -12.791696 18.839938 -33.412981 33.992762 -17.793695 4.582348 40.959210 -9.124555 0.220399 -0.000000 0.000000 -0.000000 5.552922 -6.807384 78.387595 7.266713 -6.940974 92.633491 -0.000000 0.000000 0.000004 5.552909 -6.807380 78.387602 7.266709 -6.940963 92.633484 -0.000000 0.000000 -0.000000 5.552912 -6.807356 78.387588 7.266694 -6.940975 92.633478 -0.000001 0.000000 0.000000 5.552905 -6.807348 78.387609 7.266713 -6.940992 92.633464 -0.000000 0.000001 0.000000 -0.000001 0.000000 -0.000001 -0.000000 0.000000 0.000000 -0.000000 0.000000 0.000000 -0.000000 0.000000 0.000000 -0.000000 0.000000 0.000000 -0.000000 0.000000 0.000000 0.000000 -0.000000 -0.000000 -0.000000 0.000000 0.000000 -0.000000 0.000000 0.000000 0.000000 -0.000000 -0.000000 0.000000 -0.000000 -0.000000 0.000000 -0.000000 -0.000000 -0.000000 -0.000000 0.000000 
1.629646 82.069496 -0.746391 5.951539 -178.696450 0.844128 -0.000000 0.000000 0.000000 -4.887847 17.471607 8.309021 13.708427 -10.416017 5.808677 -6.429466 -4.375330 -6.713157 0.000000 -0.000000 -0.000000 0.000000 -0.000000 -0.000000 0.000001 -0.000001 -0.000000 -3.595333 -14.995784 -9.162492 15.398685 7.224999 -5.095561 -7.100288 -0.745987 6.545942 -0.000000 -0.000000 -0.000000 -0.000000 -0.000000 -0.000000 -0.000001 0.000000 -0.000001 0.017110 -4.866488 -3.748684 0.281520 -1.266993 1.480087 0.307167 -1.264558 1.480753 0.310989 2.015830 -1.565220 11.094148 7.489954 -0.496619 -0.000000 0.000000 0.000000 -0.000000 0.000000 0.000000 -0.000000 0.000000 0.000000 0.982794 -4.208463 -8.801294 -64.548409 -62.261648 -58.875158 -0.008225 -93.065077 -0.008199 -15.894381 -21.082953 5.564695 -3.038172 18.722001 -12.520717 12.000688 21.632247 5.115100 -0.000001 0.000001 0.000002 0.077740 1.033885 -8.600222 0.327499 2.102187 -17.707831 -0.000001 0.000000 -0.000005 0.077453 1.031974 -8.584245 0.328087 2.104021 -17.723818 0.000002 0.000003 0.000001 0.077742 1.033882 -8.600228 0.327497 2.102191 -17.707837 -0.000001 0.000001 -0.000000 0.667966 5.045120 -8.121108 0.328121 -1.954985 -18.194731 -0.000000 0.000000 -0.000000 -0.000000 0.000000 0.000005 0.938258 4.957931 4.381359 -38.537959 7.729371 44.806591 -0.000026 120.494987 0.000024 -12.495768 18.767569 -33.693777 33.992759 -17.793698 4.582347 40.959214 -9.124555 0.220398 0.000000 0.000001 0.000001 5.552918 -6.807384 78.387595 7.266710 -6.940977 92.633491 0.000002 -0.000001 0.000005 5.552908 -6.807381 78.387602 7.266707 -6.940969 92.633484 0.000003 0.000001 -0.000000 5.552907 -6.807356 78.387595 7.266695 -6.940978 92.633471 -0.000000 -0.000001 0.000005 5.552902 -6.807350 78.387609 7.266710 -6.940996 92.633471 0.000000 -0.000001 0.000000 0.000000 -0.000001 -0.000003 -0.000000 0.000000 -0.000000 -0.000000 0.000000 -0.000000 -0.000000 0.000000 -0.000000 -0.000000 0.000000 -0.000000 -0.000000 0.000000 -0.000000 -0.000000 0.000000 0.000000 -0.000000 0.000000 -0.000000 -0.000000 0.000000 -0.000000 -0.000000 0.000000 0.000000 -0.000000 0.000000 0.000000 -0.000000 0.000000 0.000000 -0.000000 0.000000 0.000000 
